<svg width="0" height="0" class="hidden">
  <symbol xmlns="http://www.w3.org/2000/svg" viewBox="0 0 1024 1024" id="collection-fill">
    <path d="M490.261 173.44a49.067 49.067 0 0164.064 19.179l1.664 3.093 87.851 177.813 196.352 28.502a49.067 49.067 0 0129.717 81.066l-2.538 2.646L725.333 624l33.536 195.35a49.067 49.067 0 01-68.01 53.269l-3.158-1.515L512 778.859l-175.701 92.266A49.067 49.067 0 01264.66 822.7l.47-3.328 33.536-195.35L156.629 485.76a49.067 49.067 0 0123.894-83.115l3.285-.597 196.352-28.501 87.85-177.814a49.067 49.067 0 0122.251-22.272z"></path>
  </symbol>
  <symbol xmlns="http://www.w3.org/2000/svg" viewBox="0 0 1024 1024" id="component">
    <path d="M516.757 149.333a120.896 120.896 0 01114.006 161.174h104.064a64 64 0 0164 64v436.16a64 64 0 01-64 64h-436.16a64 64 0 01-64-64v-87.104c0-15.702 11.989-28.63 27.306-30.08l2.923-.15a90.667 90.667 0 004.395-181.226l-4.395-.107a30.23 30.23 0 01-30.08-27.307l-.15-2.944V374.507a64 64 0 0164-64h104.065a120.704 120.704 0 01-6.87-40.32c0-85.44 35.414-120.854 120.896-120.854zm0 64a56.896 56.896 0 00-53.674 75.862l30.144 85.312h-194.56v77.184a154.73 154.73 0 015.162 300.693l-5.162 1.259v57.024h436.16V374.528l-194.56-.021 30.144-85.334a56.896 56.896 0 00-53.675-75.84z"></path>
  </symbol>
  <symbol xmlns="http://www.w3.org/2000/svg" viewBox="0 0 1024 1024" id="conditions">
    <path d="M381.483 673.877a90.39 90.39 0 0185.226 60.246h386.624v64H465.28a90.39 90.39 0 01-167.573 0h-127.04v-64h125.61a90.39 90.39 0 0185.206-60.246zm0 64a26.347 26.347 0 100 52.694 26.347 26.347 0 000-52.694zM642.517 432.94a90.39 90.39 0 0185.206 60.245h125.61v64h-127.04a90.39 90.39 0 01-167.573 0H170.667v-64H557.29a90.39 90.39 0 0185.226-60.245zm0 64a26.347 26.347 0 100 52.693 26.347 26.347 0 000-52.693zM381.483 192a90.39 90.39 0 0185.226 60.224h386.624v64H465.28a90.39 90.39 0 01-167.573 0h-127.04v-64h125.61A90.39 90.39 0 01381.483 192zm0 64a26.347 26.347 0 100 52.693 26.347 26.347 0 000-52.693z"></path>
  </symbol>
  <symbol xmlns="http://www.w3.org/2000/svg" viewBox="0 0 1024 1024" id="customization">
    <path d="M268.594 186.195a64 64 0 0190.51 0l147.62 147.651 156.356-151.95a64 64 0 0189.861.648L854.84 284.443a64 64 0 012.58 87.78l-3.244 3.363L699.148 526.27 818.35 645.44a64 64 0 010 90.51l-101.898 101.9a64 64 0 01-90.51 0L503.979 715.947l-82.273 79.98-151.574 51.802a64 64 0 01-82.801-76.043l41.951-168.182 82.289-79.966-144.876-144.936a64 64 0 010-90.51l101.899-101.898zm281.258 485.147l33.972 33.97 64.744-64.744 45.255 45.255-64.714 64.715 42.087 42.087L773.11 690.71 653.245 570.876 549.852 671.342zm79.74-367.68l100.782 103.014 79.211-76.978-101.899-101.899-78.08 75.847zm-342.625 333.03l-37.531 150.487 137.967-47.156 297.067-288.74-100.782-103.016-296.721 288.424zm26.881-405.242L211.95 333.348l42.041 42.072 64.715-64.714 45.255 45.255-64.715 64.714 58.213 58.243 103.377-100.45L313.848 231.45z"></path>
  </symbol>
  <symbol xmlns="http://www.w3.org/2000/svg" viewBox="0 0 1024 1024" id="free">
    <path d="M829.867 313.6a64 64 0 0164 64v213.333a64 64 0 01-64 64H262.08l-93.483 91.734-.021-91.734h-.043V377.6a64 64 0 0164-64h597.334zm-6.4 74.667H697.6v185.6h125.867v-38.4h-78.934v-40.534H812.8V460.8h-68.267v-36.267h78.934v-36.266zm-136.534 0H561.067v185.6h125.866v-38.4H608v-40.534h68.267V460.8H608v-36.267h78.933v-36.266zm-212.181 0h-82.219v185.6h46.934l-.022-68.459 18.155-.021.683 1.664c6.826 16.64 12.65 28.97 17.45 36.949 5.334 8.875 11.734 18.133 19.2 27.733h57.6l-3.69-5.098c-18.027-24.918-29.227-41.216-33.579-48.896a418.261 418.261 0 01-10.667-20.48 58.581 58.581 0 00-29.866-108.992h.021zm-92.885 0H256v185.6h46.933v-70.4H371.2V467.2h-68.267v-42.667h78.934v-36.266zm85.333 38.4a23.467 23.467 0 010 46.933h-27.733v-46.933z"></path>
  </symbol>
  <symbol xmlns="http://www.w3.org/2000/svg" viewBox="0 0 1024 1024" id="inspection">
    <path d="M695.467 605.867c57.6 0 102.4 44.8 102.4 102.4 0 19.2-4.267 36.266-14.934 51.2l61.867 61.866-34.133 36.267-61.867-61.867c-14.933 8.534-34.133 14.934-53.333 14.934-57.6 0-102.4-44.8-102.4-102.4s46.933-102.4 102.4-102.4zM294.4 179.2h42.667v64H294.4v533.333h256v64h-256c-36.267 0-64-27.733-64-64V243.2c0-36.267 29.867-64 64-64zm401.067 490.667c-21.334 0-38.4 17.066-38.4 38.4s17.066 38.4 38.4 38.4 38.4-17.067 38.4-38.4-17.067-38.4-38.4-38.4zm25.6-490.667c36.266 0 64 27.733 64 64v341.333h-64V243.2H678.4v-64h42.667zM550.4 520.533v64h-192v-64h192zm106.667-128v64H358.4v-64h298.667zM571.733 115.2c36.267 0 64 27.733 64 64v42.667c0 36.266-27.733 64-64 64h-128c-36.266 0-64-27.734-64-64V179.2c0-36.267 27.734-64 64-64h128zm0 64h-128v42.667h128V179.2z"></path>
  </symbol>
  <symbol xmlns="http://www.w3.org/2000/svg" viewBox="0 0 1024 1024" id="integral">
    <path d="M168.107 621.44l120.746 57.963L512.128 787.54l215.317-104.32 128.768-61.674a64 64 0 01-29.952 84.97L540.032 845.141a64 64 0 01-55.808 0l-286.23-138.624a64 64 0 01-29.887-85.077zm687.829-133.93a64 64 0 01-29.675 85.546L540.011 711.68a64 64 0 01-55.808 0L197.995 573.056a64 64 0 01-31.168-82.176L483.84 640.405l28.288 13.696 286.23-138.624-.15-.064 57.728-27.882zM540.032 185.791L826.24 324.395a64 64 0 010 115.2L540.032 578.219a64 64 0 01-55.808 0l-286.23-138.624a64 64 0 010-115.2l286.23-138.582a64 64 0 0155.808 0zm-27.904 57.6l-286.23 138.603 286.23 138.624 286.23-138.624-286.23-138.603z"></path>
  </symbol>
  <symbol xmlns="http://www.w3.org/2000/svg" viewBox="0 0 1024 1024" id="new">
    <path d="M829.867 313.6a64 64 0 0164 64v213.333a64 64 0 01-64 64H262.059l-93.739 91.734V640h.213V377.6a64 64 0 0164-64h597.334zm-117.334 78.293h-51.2l-23.466 138.56-19.2-136.533h-51.2L601.6 568.597h68.267l19.2-116.458 17.066 116.458H774.4l34.133-174.677h-51.2l-17.066 138.539-27.734-140.544zm-151.466 0H435.2v174.699h125.867v-36.139h-78.934v-38.165H550.4v-32.107h-68.267v-34.133h78.934v-34.133zm-217.6 0h-70.4v174.699H320V438.08l32 128.512h70.4V391.893h-46.933V526.4l-32-134.507z"></path>
  </symbol>
  <symbol xmlns="http://www.w3.org/2000/svg" viewBox="0 0 1024 1024" id="phone">
    <path d="M661.333 768v64H362.667v-64h298.666zm149.334-576a64 64 0 0164 64v405.333a64 64 0 01-64 64H213.333a64 64 0 01-64-64V256a64 64 0 0164-64h597.334zm0 64H213.333v405.333h597.334V256zM661.333 426.667v64H362.667v-64h298.666z"></path>
  </symbol>
  <symbol xmlns="http://www.w3.org/2000/svg" viewBox="0 0 1024 1024" id="quick">
    <path d="M647.125 170.667a42.667 42.667 0 0139.382 59.093L616.81 396.8h114.07a42.667 42.667 0 0133.195 69.483l-306.24 379.456a42.667 42.667 0 01-75.03-35.222l40.747-202.368h-137.11a42.667 42.667 0 01-39.466-58.88l144.533-352.128a42.667 42.667 0 0139.467-26.474h216.15zm-201.834 64L318.25 544.149h183.488L462.74 737.728l223.51-276.907H520.747l94.357-226.154H445.291z"></path>
  </symbol>
  <symbol xmlns="http://www.w3.org/2000/svg" viewBox="0 0 1024 1024" id="search">
    <path d="M469.333 192c153.174 0 277.334 124.16 277.334 277.333 0 68.054-24.534 130.411-65.216 178.688L846.336 818.24l-48.341 49.877L630.4 695.125a276.053 276.053 0 01-161.067 51.542C316.16 746.667 192 622.507 192 469.333S316.16 192 469.333 192zm0 64C351.51 256 256 351.51 256 469.333s95.51 213.334 213.333 213.334 213.334-95.51 213.334-213.334S587.157 256 469.333 256z"></path>
  </symbol>
  <symbol xmlns="http://www.w3.org/2000/svg" viewBox="0 0 1024 1024" id="service">
    <path d="M673.195 413.973h78.72C737.024 297.92 635.285 208.15 512 208.15c-123.307 0-225.024 89.792-239.915 205.824h78.72v264.662H234.667a85.333 85.333 0 01-85.334-85.334v-93.994a85.376 85.376 0 0160.694-81.707l.917-.256C224.491 267.157 354.091 149.334 512 149.334c157.888 0 287.51 117.802 301.056 268.01l.917.256a85.376 85.376 0 0160.694 81.707V593.3a85.333 85.333 0 01-85.334 85.334l-55.722-.022v40.384a106.71 106.71 0 01-74.368 101.696 78.507 78.507 0 01-74.539 53.974H469.525a78.421 78.421 0 010-156.822h115.179c27.05 0 50.901 13.696 64.981 34.518a63.744 63.744 0 0023.382-45.76l.128-3.755V413.995zm-88.491 367.894H469.525a14.421 14.421 0 000 28.821h115.179a14.421 14.421 0 000-28.821zM286.805 477.973h-52.138a21.333 21.333 0 00-21.334 21.334V593.3a21.333 21.333 0 0021.334 21.334h52.138V477.973zm502.528 0h-52.138v136.662h52.138a21.333 21.333 0 0021.334-21.334v-93.994a21.333 21.333 0 00-21.334-21.334z"></path>
  </symbol>
  <symbol xmlns="http://www.w3.org/2000/svg" viewBox="0 0 1024 1024" id="Subscribe">
    <path d="M810.667 149.333a64 64 0 0164 64v597.334a64 64 0 01-64 64H213.333a64 64 0 01-64-64V213.333a64 64 0 0164-64h597.334zm0 64H213.333v597.334h597.334V213.333zM373.333 640a53.333 53.333 0 110 106.667 53.333 53.333 0 010-106.667zm-32-160c121.686 0 220.715 97.024 223.915 217.941l.085 6.059h-64a160 160 0 00-154.816-159.915l-5.184-.085v-64zm21.334-192c215.573 0 390.784 172.843 394.602 387.499l.064 7.168h-64c0-180.374-144.426-326.998-323.925-330.603l-6.741-.064v-64z"></path>
  </symbol>
  <symbol xmlns="http://www.w3.org/2000/svg" viewBox="0 0 1024 1024" id="template">
    <path d="M277.333 298.667v490.666h437.334v64H309.333a96 96 0 01-95.893-91.477l-.107-4.523V298.667h64zm472.79-127.787a64 64 0 0164 64v451.243a64 64 0 01-64 64H319.787V234.88a64 64 0 0164-64h366.336zm0 64H383.787v451.243h366.336V234.88zM640 298.667v64H448v-64h192z"></path>
  </symbol>
  <symbol xmlns="http://www.w3.org/2000/svg" viewBox="0 0 1024 1024" id="add-select">
    <path d="M544 213.333V480h266.667v64H544v266.667h-64V544H213.333v-64H480V213.333z"></path>
  </symbol>
  <symbol xmlns="http://www.w3.org/2000/svg" viewBox="0 0 1024 1024" id="category">
    <path d="M551.317 164.032l2.987 2.773 56 56c8.619 12.907 21.205 17.878 34.112 18.56l3.221.086h79.36c2.88 0 5.675.192 8.384.533l-63.488 63.467h-24.256c-33.493 0-64.746-13.163-86.122-40.939l-46.912-46.87-54.934 54.913-9.301 6.186c-7.595 5.014-12.693 8.192-18.155 11.179l-5.696 2.965c-15.85 7.915-31.85 12.587-49.621 12.587h-71.36v71.253c0 33.024-12.8 63.851-39.765 85.184l-48.256 52.224 50.56 50.56c22.101 22.059 37.461 50.176 37.461 82.56v71.296h71.36c33.515 0 64.768 13.163 86.144 40.939l46.89 46.87 50.454-50.433c22.08-22.058 50.219-37.376 82.603-37.376h71.36v-71.296c0-33.536 13.205-64.768 41.002-86.144L804.48 512l-33.835-33.813 45.248-45.248 41.792 41.749c22.464 17.963 23.318 53.227-1.664 76.65l-2.986 2.646-56.043 55.979c-12.928 8.597-17.899 21.184-18.56 34.09l-.107 3.2v79.318c0 31.402-21.568 54.165-52.266 55.872l-3.755.106h-79.36c-12.821 0-25.664 7.83-34.901 16.32l-2.432 2.347-56.022 55.957c-22.357 22.358-53.312 23.275-76.373 2.795l-2.987-2.773-56-56c-8.618-12.907-21.226-17.878-34.133-18.56l-3.2-.086h-79.36c-31.424 0-54.23-21.568-55.936-52.266l-.085-3.712v-79.318c0-12.821-7.851-25.664-16.363-34.901l-2.325-2.41-56-55.98c-22.379-22.357-23.318-53.269-2.816-76.33l2.816-2.987 56-60.629c12.928-8.597 17.92-21.184 18.602-34.09l.086-3.2v-79.318c0-31.403 21.568-54.165 52.266-55.872l3.734-.107h79.36c11.456 0 22.912-6.229 34.368-13.61l7.637-5.035 56.021-55.979c22.379-22.357 53.334-23.274 76.395-2.794zM766.805 297.28l45.056 45.44-280.896 278.443-129.194-129.195 45.248-45.27 84.138 84.14L766.805 297.28z"></path>
  </symbol>
  <symbol xmlns="http://www.w3.org/2000/svg" viewBox="0 0 1024 1024" id="code">
    <path d="M256 734.101v64h-85.333v-64H256zm597.333 0v64H298.667v-64h554.666zM256 493.184v64h-85.333v-64H256zm597.333 0v64H298.667v-64h554.666zM256 252.245v64h-85.333v-64H256zm597.333 0v64H298.667v-64h554.666z"></path>
  </symbol>
  <symbol xmlns="http://www.w3.org/2000/svg" viewBox="0 0 1024 1024" id="code_1">
    <path d="M541.141 268.864l61.718 16.939-132.395 482.474-61.717-16.938L541.14 268.864zm-212.138 29.803l44.885 45.61-175.36 172.587 175.04 167.573-44.267 46.23-222.634-213.163 222.336-218.837zm355.882 0l222.336 218.837-222.634 213.163-44.267-46.23 175.019-167.573L640 344.277l44.885-45.61z"></path>
  </symbol>
  <symbol xmlns="http://www.w3.org/2000/svg" viewBox="0 0 1024 1024" id="collection">
    <path d="M490.261 173.44a49.067 49.067 0 0164.064 19.179l1.664 3.093 87.851 177.813 196.352 28.502a49.067 49.067 0 0129.717 81.066l-2.538 2.646L725.333 624l33.536 195.35a49.067 49.067 0 01-68.01 53.269l-3.158-1.515L512 778.859l-175.701 92.266A49.067 49.067 0 01264.66 822.7l.47-3.328 33.536-195.35L156.629 485.76a49.067 49.067 0 0123.894-83.115l3.285-.597 196.352-28.501 87.85-177.814a49.067 49.067 0 0122.251-22.272zm-67.626 258.581l-199.659 28.992 144.47 140.651-34.134 198.741L512 706.56l178.688 93.845-34.133-198.741 144.469-140.65-199.659-28.993L512 251.157l-89.387 180.864z"></path>
  </symbol>
  <symbol xmlns="http://www.w3.org/2000/svg"  viewBox="0 0 1024 1024" id="mobile">
    <path d="M714.4448 100.0448a26.2144 26.2144 0 0 1 26.1632 26.2144V896.512a26.2144 26.2144 0 0 1-26.1632 26.2144H307.2a26.2656 26.2656 0 0 1-26.2144-26.2144V126.2592A26.2656 26.2656 0 0 1 307.2 100.0448h407.04m0-28.8768H307.2a55.0912 55.0912 0 0 0-54.8864 55.0912V896.512A55.0912 55.0912 0 0 0 307.2 951.6032h407.04a55.04 55.04 0 0 0 55.04-55.0912V126.2592a55.04 55.04 0 0 0-54.8352-55.0912z">
    </path>
    <path d="M610.4576 165.7856H411.392c-33.1776 0-59.1872-34.4064-59.1872-78.2848a14.4896 14.4896 0 0 1 28.928 0c0 26.7776 13.8752 49.408 30.2592 49.408h199.0656c16.384 0 30.2592-22.6304 30.2592-49.408a14.4384 14.4384 0 0 1 28.8768 0c0 43.8784-26.0096 78.2848-59.136 78.2848zM510.9248 706.0992a194.56 194.56 0 1 1 194.56-194.56 194.9184 194.9184 0 0 1-194.56 194.56z m0-360.5504a165.8368 165.8368 0 1 0 165.8368 165.8368 166.0416 166.0416 0 0 0-165.8368-165.8368z"></path><path d="M485.1712 589.6704a14.4896 14.4896 0 0 1-9.216-3.328l-78.3872-64.9728a14.4384 14.4384 0 0 1 18.432-22.2208l78.3872 64.9216a14.4896 14.4896 0 0 1-9.216 25.6z"></path><path d="M484.4032 589.6704a14.6432 14.6432 0 0 1-10.24-4.352 14.4384 14.4384 0 0 1 0-20.48l130.7648-127.5904a14.4384 14.4384 0 1 1 20.224 20.48l-130.6624 127.7952a14.336 14.336 0 0 1-10.0864 4.1472z">
    </path>
  </symbol>

  <svg xmlns="http://www.w3.org/2000/svg" viewBox="0 0 1024 1024" id="assessed-badge">
    <path d="M551.317333 164.032l2.986667 2.773333 56 56c8.618667 12.906667 21.205333 17.877333 34.112 18.56l3.221333 0.085334h79.36c2.88 0 5.674667 0.192 8.384 0.533333l-63.488 63.466667h-24.256c-33.493333 0-64.746667-13.162667-86.122666-40.938667l-46.912-46.869333-54.933334 54.912-9.301333 6.186666c-7.594667 5.013333-12.693333 8.192-18.154667 11.178667l-5.696 2.965333c-15.850667 7.914667-31.850667 12.586667-49.621333 12.586667h-71.36v71.253333c0 33.024-12.8 63.850667-39.765333 85.184L217.514667 514.133333l50.56 50.56c22.101333 22.058667 37.461333 50.176 37.461333 82.56v71.296h71.36c33.514667 0 64.768 13.162667 86.144 40.938667l46.890667 46.869333 50.453333-50.432c22.08-22.058667 50.218667-37.376 82.602667-37.376h71.36V647.253333c0-33.536 13.205333-64.768 41.002666-86.144L804.48 512l-33.834667-33.813333 45.248-45.248 41.792 41.749333c22.464 17.962667 23.317333 53.226667-1.664 76.650667l-2.986666 2.645333-56.042667 55.978667c-12.928 8.597333-17.898667 21.184-18.56 34.090666l-0.106667 3.2v79.317334c0 31.402667-21.568 54.165333-52.266666 55.872l-3.754667 0.106666h-79.36c-12.821333 0-25.664 7.829333-34.901333 16.32l-2.432 2.346667-56.021334 55.957333c-22.357333 22.357333-53.312 23.274667-76.373333 2.794667l-2.986667-2.773333-56-56c-8.618667-12.906667-21.226667-17.877333-34.133333-18.56l-3.2-0.085334h-79.36c-31.424 0-54.229333-21.568-55.936-52.266666l-0.085333-3.712V647.253333c0-12.821333-7.850667-25.664-16.362667-34.901333l-2.325333-2.410667-56-55.978666c-22.378667-22.357333-23.317333-53.269333-2.816-76.330667l2.816-2.986667 56-60.629333c12.928-8.597333 17.92-21.184 18.602666-34.090667l0.085334-3.2v-79.317333c0-31.402667 21.568-54.165333 52.266666-55.872l3.733334-0.106667h79.36c11.456 0 22.912-6.229333 34.368-13.610666l7.637333-5.034667 56.021333-55.978667c22.378667-22.357333 53.333333-23.274667 76.394667-2.794666z m215.488 133.248l45.056 45.44-280.896 278.442667-129.194666-129.194667 45.248-45.269333 84.138666 84.138666 235.648-233.557333z"></path>
  </svg>
</svg>